<svg xmlns="http://www.w3.org/2000/svg" width="420" height="420" viewBox="0 0 420 420" fill="none">
  <rect width="420" height="420" fill="#F8F3ED"/>

  <rect x="28" y="28" width="364" height="364" rx="26" stroke="#2A2320" stroke-opacity="0.22" stroke-width="1.5"/>

  <g stroke="#2A2320" stroke-opacity="0.44" stroke-width="1.3" stroke-linecap="round" fill="none">
    <path d="M96 116C123 91 153 92 180 116"/>
    <path d="M240 116C267 92 297 91 324 116"/>
    <path d="M96 298C123 323 153 324 180 298"/>
    <path d="M240 298C267 324 297 323 324 298"/>
  </g>

  <g fill="#2A2320">
    <text x="210" y="195" text-anchor="middle" font-family="Cormorant Garamond, Georgia, serif" font-size="72" font-weight="600" font-style="italic" letter-spacing="1.1">Y</text>
    <text x="210" y="244" text-anchor="middle" font-family="Cormorant Garamond, Georgia, serif" font-size="56" font-weight="500" font-style="italic" letter-spacing="1.1">P</text>
    <text x="210" y="303" text-anchor="middle" font-family="Cormorant Garamond, Georgia, serif" font-size="24" font-weight="600" font-style="italic" letter-spacing="2">Yasemin</text>
  </g>

  <g stroke="#2A2320" stroke-opacity="0.36" stroke-width="1.1" stroke-linecap="round" fill="none">
    <path d="M135 260C152 251 171 252 187 261"/>
    <path d="M233 261C249 252 268 251 285 260"/>
  </g>
</svg>
